<svg width="512" height="512" viewBox="0 0 512 512" fill="none" xmlns="http://www.w3.org/2000/svg">
  <rect width="512" height="512" rx="100" fill="#4F46E5"/>
  <path d="M128 256C128 185.308 185.308 128 256 128C326.692 128 384 185.308 384 256C384 326.692 326.692 384 256 384" stroke="white" stroke-width="32" stroke-linecap="round"/>
  <path d="M256 384C220.654 384 192 355.346 192 320C192 284.654 220.654 256 256 256C291.346 256 320 284.654 320 320C320 355.346 291.346 384 256 384Z" fill="white"/>
  <path d="M256 256C238.327 256 224 241.673 224 224C224 206.327 238.327 192 256 192C273.673 192 288 206.327 288 224C288 241.673 273.673 256 256 256Z" fill="white"/>
  <path d="M384 192L320 128" stroke="white" stroke-width="24" stroke-linecap="round"/>
  <path d="M384 320L320 384" stroke="white" stroke-width="24" stroke-linecap="round"/>
</svg>